<svg viewBox="460 57.5 420 382.5" width="512" height="512" version="1.1" xmlns="http://www.w3.org/2000/svg">
<style>.vertex { font-family: Consolas } .edge { font-family: Consolas } .text { font-family: Consolas }</style>
    <path d="M 500 200L 499.6314768101109 190.15004675639997L 499.77149076485256 180.80863065743068L 500.42004186422497 171.97575170309216L 501.5771301082281 163.65140989338437L 503.24275549686206 155.83560522830737L 505.41691803012674 148.5283377078611L 508.09961770802215 141.72960733204562L 511.29085453054836 135.43941410086086L 514.9906284977053 129.65775801430686L 519.198939609493 124.38463907238365L 523.9157878659115 119.62005727509117L 529.1411732669608 115.36401262242946L 534.8750958126407 111.61650511439849L 541.1175555029514 108.3775347509983L 547.8685523378929 105.64710153222885L 555.1280863174652 103.42520545809015" fill="none" stroke="#000000" stroke-width="2"></path>
    <path transform="translate(555.1280863174652 103.42520545809015) rotate(-4.365090844221305)" d="M-1, -5 L 14 0 L -1, 5 z" fill="#000000"></path>
    <path d="M 600 100L 609.8171234130859 96.26590245898115L 619.6342468261719 92.91730856639333L 629.4513702392578 89.95421832223656L 639.2684936523438 87.37663172651082L 649.0856170654297 85.18454877921613L 658.9027404785156 83.37796948035248L 668.7198638916016 81.95689382991986L 678.5369873046875 80.92132182791829L 688.3541107177734 80.27125347434776L 698.1712341308594 80.00668876920827L 707.9883575439453 80.12762771249982L 717.8054809570312 80.6340703042224L 727.6226043701172 81.52601654437603L 737.4397277832031 82.8034664329607L 747.2568511962891 84.46641996997641L 757.073974609375 86.51487715542316" fill="none" stroke="#000000" stroke-width="2"></path>
    <path transform="translate(757.073974609375 86.51487715542316) rotate(17.44000436444655)" d="M-1, -5 L 14 0 L -1, 5 z" fill="#000000"></path>
    <path d="M 800 100L 790.1828765869141 96.26590245898115L 780.3657531738281 92.91730856639333L 770.5486297607422 89.95421832223656L 760.7315063476562 87.37663172651082L 750.9143829345703 85.18454877921613L 741.0972595214844 83.37796948035248L 731.2801361083984 81.95689382991986L 721.4630126953125 80.92132182791829L 711.6458892822266 80.27125347434776L 701.8287658691406 80.00668876920827L 692.0116424560547 80.12762771249982L 682.1945190429688 80.6340703042224L 672.3773956298828 81.52601654437603L 662.5602722167969 82.8034664329607L 652.7431488037109 84.46641996997641L 642.926025390625 86.51487715542316" fill="none" stroke="#000000" stroke-width="2"></path>
    <path transform="translate(642.926025390625 86.51487715542316) rotate(162.55999563555346)" d="M-1, -5 L 14 0 L -1, 5 z" fill="#000000"></path>
    <path d="M 700 200L 700.3685231898891 190.15004675639997L 700.2285092351474 180.80863065743068L 699.5799581357751 171.97575170309216L 698.4228698917718 163.65140989338437L 696.7572445031379 155.83560522830737L 694.5830819698733 148.5283377078611L 691.9003822919778 141.72960733204562L 688.7091454694516 135.43941410086086L 685.0093715022947 129.65775801430686L 680.801060390507 124.38463907238365L 676.0842121340885 119.62005727509117L 670.8588267330392 115.36401262242946L 665.1249041873593 111.61650511439849L 658.8824444970486 108.3775347509983L 652.1314476621071 105.64710153222885L 644.8719136825348 103.42520545809015" fill="none" stroke="#000000" stroke-width="2"></path>
    <path transform="translate(644.8719136825348 103.42520545809015) rotate(-175.6349091557787)" d="M-1, -5 L 14 0 L -1, 5 z" fill="#000000"></path>
    <path d="M 500 200L 510.14060974121094 192.29884007072542L 520.2812194824219 185.42033586883917L 530.4218292236328 179.36448739434127L 540.5624389648438 174.1312946472317L 550.7030487060547 169.72075762751047L 560.8436584472656 166.13287633517757L 570.9842681884766 163.367650770233L 581.1248779296875 161.4250809326768L 591.2654876708984 160.3051668225089L 601.4060974121094 160.00790843972936L 611.5467071533203 160.53330578433815L 621.6873168945312 161.88135885633528L 631.8279266357422 164.05206765572075L 641.9685363769531 167.04543218249455L 652.1091461181641 170.8614524366567L 662.249755859375 175.50012841820717" fill="none" stroke="#000000" stroke-width="2"></path>
    <path transform="translate(662.249755859375 175.50012841820717) rotate(32.98353155090727)" d="M-1, -5 L 14 0 L -1, 5 z" fill="#000000"></path>
    <path d="M 700 200L 689.8593902587891 192.29884007072542L 679.7187805175781 185.42033586883917L 669.5781707763672 179.36448739434127L 659.4375610351562 174.1312946472317L 649.2969512939453 169.72075762751047L 639.1563415527344 166.13287633517757L 629.0157318115234 163.367650770233L 618.8751220703125 161.4250809326768L 608.7345123291016 160.3051668225089L 598.5939025878906 160.00790843972936L 588.4532928466797 160.53330578433815L 578.3126831054688 161.88135885633528L 568.1720733642578 164.05206765572075L 558.0314636230469 167.04543218249455L 547.8908538818359 170.8614524366567L 537.750244140625 175.50012841820717" fill="none" stroke="#000000" stroke-width="2"></path>
    <path transform="translate(537.750244140625 175.50012841820717) rotate(147.01646844909274)" d="M-1, -5 L 14 0 L -1, 5 z" fill="#000000"></path>
    <path d="M 600 270L 536.8682861328125 225.80780029296875" fill="none" stroke="#000000" stroke-width="2"></path>
    <path transform="translate(536.8682861328125 225.80780029296875) rotate(-145.00797980144137)" d="M-1, -5 L 14 0 L -1, 5 z" fill="#000000"></path>
    <path d="M 500 200L 563.1317138671875 244.19219970703125" fill="none" stroke="#000000" stroke-width="2"></path>
    <path transform="translate(563.1317138671875 244.19219970703125) rotate(34.992020198558656)" d="M-1, -5 L 14 0 L -1, 5 z" fill="#000000"></path>
    <path d="M 600 270L 605.9551142493117 269.7033526271905L 611.7532631076231 269.18246898152336L 617.394446574934 268.43734906299863L 622.8786646512448 267.46799287161633L 628.2059173365551 266.27440040737645L 633.3762046308652 264.85657167027887L 638.3895265341748 263.21450666032376L 643.2458830464843 261.348205377511L 647.9452741677934 259.2576678218407L 652.4876998981022 256.94289399331274L 656.8731602374106 254.40388389192722L 661.1016551857188 251.64063751768407L 665.1731847430265 248.65315487058334L 669.087748909334 245.44143595062496L 672.8453476846412 242.00548075780904L 676.445981068948 238.34528929213548" fill="none" stroke="#000000" stroke-width="2"></path>
    <path transform="translate(676.445981068948 238.34528929213548) rotate(-58.439212795222154)" d="M-1, -5 L 14 0 L -1, 5 z" fill="#000000"></path>
    <path d="M 700 200L 636.8682861328125 244.19219970703125" fill="none" stroke="#000000" stroke-width="2"></path>
    <path transform="translate(636.8682861328125 244.19219970703125) rotate(145.00797980144137)" d="M-1, -5 L 14 0 L -1, 5 z" fill="#000000"></path>
    <path d="M 600 400L 600 315.00091552734375" fill="none" stroke="#000000" stroke-width="2"></path>
    <path transform="translate(600 315.00091552734375) rotate(-90)" d="M-1, -5 L 14 0 L -1, 5 z" fill="#000000"></path>
    <path d="M 600 270L 603.258956761274 275.5311393737793L 606.2282708927523 281.0622787475586L 608.9079423944349 286.5934181213379L 611.2979712663218 292.1245574951172L 613.398357508413 297.6556968688965L 615.2091011207085 303.1868362426758L 616.7302021032083 308.7179756164551L 617.9616604559124 314.2491149902344L 618.9034761788207 319.7802543640137L 619.5556492719334 325.31139373779297L 619.9181797352503 330.84253311157227L 619.9910675687715 336.37367248535156L 619.7743127724971 341.90481185913086L 619.2679153464269 347.43595123291016L 618.471875290561 352.96709060668945L 617.3861926048994 358.49822998046875" fill="none" stroke="#000000" stroke-width="2"></path>
    <path transform="translate(617.3861926048994 358.49822998046875) rotate(112.73010317709478)" d="M-1, -5 L 14 0 L -1, 5 z" fill="#000000"></path>
    <path d="M 500 200L 498.15449646277074 213.8417008958119L 497.07330255381777 227.30124697748565L 496.7564182731411 240.37863824502125L 497.2038436207407 253.0738746984187L 498.41557859661657 265.38695633767804L 500.3916232007688 277.31788316279926L 503.1319774331972 288.86665517378225L 506.63664129390196 300.0332723706272L 510.90561478288305 310.81773475333387L 515.9388979001403 321.2200423219025L 521.7364906456739 331.24019507633295L 528.2983930194839 340.87819301662523L 535.6246050215701 350.13403614277945L 543.7151266519326 359.00772445479544L 552.5699579105714 367.4992579526733L 562.1890987974864 375.60863663641305" fill="none" stroke="#000000" stroke-width="2"></path>
    <path transform="translate(562.1890987974864 375.60863663641305) rotate(32.82558168515534)" d="M-1, -5 L 14 0 L -1, 5 z" fill="#000000"></path>
    <path d="M 600 400L 587.819337161013 393.17138229229624L 576.4029839503021 385.9606097704544L 565.7509403678677 378.3676824344744L 555.8632064137095 370.3926002843562L 546.7397820878275 362.0353633200999L 538.3806673902219 353.2959715417055L 530.7858623208925 344.1744249491729L 523.9553668798394 334.6707235425022L 517.8891810670627 324.78486732169324L 512.5873048825622 314.51685628674625L 508.049738326338 303.8666904376611L 504.27648139839016 292.83436977443773L 501.26753409871856 281.4198942970763L 499.0228964273232 269.6232640055767L 497.5425683842042 257.44447889993893L 496.8265499693614 244.88353898016305" fill="none" stroke="#000000" stroke-width="2"></path>
    <path transform="translate(496.8265499693614 244.88353898016305) rotate(-85.95568403931134)" d="M-1, -5 L 14 0 L -1, 5 z" fill="#000000"></path>
    <path d="M 600 400L 608.2207041401904 397.4582352945825L 616.1374416266387 394.764487262294L 623.7502124593452 391.9187559031345L 631.0590166383098 388.9210412171042L 638.0638541635325 385.77134320420276L 644.7647250350133 382.46966186443046L 651.1616292527519 379.01599719778716L 657.2545668167488 375.4103492042729L 663.0435377270038 371.6527178838877L 668.5285419835168 367.7431032366315L 673.709579586288 363.6815052625044L 678.5866505353172 359.46792396150624L 683.1597548306045 355.1023593336372L 687.4288924721498 350.58481137889714L 691.3940634599531 345.9152800972862L 695.0552677940146 341.09376548880425L 698.4125054743342 336.1202675534513L 701.4657765009119 330.99478629122746L 704.2150808737476 325.7173217021326L 706.6604185928413 320.2878737861668L 708.8017896581932 314.70644254333007L 710.6391940698032 308.9730279736224L 712.1726318276712 303.0876300770436L 713.4021029317973 297.050248853594L 714.3276073821814 290.8608843032734L 714.9491451788238 284.5195364260818L 715.2667163217241 278.0262052220193L 715.2803208108826 271.3808906910858L 714.989958646299 264.5835928332814L 714.3956298279736 257.63431164860594L 713.4973343559062 250.53304713705955L 712.2950722300969 243.27979929864222" fill="none" stroke="#000000" stroke-width="2"></path>
    <path transform="translate(712.2950722300969 243.27979929864222) rotate(-105.85896778220611)" d="M-1, -5 L 14 0 L -1, 5 z" fill="#000000"></path>
    <path d="M 700 200L 701.8455035372292 213.8417008958119L 702.9266974461823 227.30124697748565L 703.2435817268589 240.37863824502125L 702.7961563792593 253.0738746984187L 701.5844214033834 265.38695633767804L 699.6083767992313 277.31788316279926L 696.8680225668028 288.86665517378225L 693.3633587060981 300.0332723706272L 689.094385217117 310.81773475333387L 684.0611020998597 321.2200423219025L 678.2635093543261 331.24019507633295L 671.7016069805161 340.87819301662523L 664.37539497843 350.13403614277945L 656.2848733480674 359.00772445479544L 647.4300420894286 367.4992579526733L 637.8109012025136 375.60863663641305" fill="none" stroke="#000000" stroke-width="2"></path>
    <path transform="translate(637.8109012025136 375.60863663641305) rotate(147.17441831484467)" d="M-1, -5 L 14 0 L -1, 5 z" fill="#000000"></path>
    <circle cx="600" cy="100" r="30" fill="#ffffff" stroke="#000000" stroke-width="1.5"/>
    <text class="vertex" x="600" y="100" dominant-baseline="middle" text-anchor="middle" fill="#000000" font-size="18px">Eoff</text>
    <circle cx="600" cy="400" r="30" fill="#ffffff" stroke="#000000" stroke-width="1.5"/>
    <text class="vertex" x="600" y="400" dominant-baseline="middle" text-anchor="middle" fill="#000000" font-size="24px">D</text>
    <circle cx="600" cy="270" r="30" fill="#ffffff" stroke="#000000" stroke-width="1.5"/>
    <text class="vertex" x="600" y="270" dominant-baseline="middle" text-anchor="middle" fill="#000000" font-size="23px">R</text>
    <circle cx="500" cy="200" r="30" fill="#ffffff" stroke="#000000" stroke-width="1.5"/>
    <text class="vertex" x="500" y="200" dominant-baseline="middle" text-anchor="middle" fill="#000000" font-size="18px">Eon</text>
    <circle cx="700" cy="200" r="30" fill="#ffffff" stroke="#000000" stroke-width="1.5"/>
    <text class="vertex" x="700" y="200" dominant-baseline="middle" text-anchor="middle" fill="#000000" font-size="23px">P</text>
    <circle cx="800" cy="100" r="30" fill="#ffffff" stroke="#000000" stroke-width="1.5"/>
    <text class="vertex" x="800" y="100" dominant-baseline="middle" text-anchor="middle" fill="#000000" font-size="18px">Charge</text>
    <rect x="690" y="67.5" width="20" height="25" fill="#ffffff" stroke="#ffffff" stroke-width="1.5"/>
    <text class="text" x="700" y="80" dominant-baseline="middle" text-anchor="middle" fill="#000000" font-size="18px">o</text>
    <rect x="670" y="117.5" width="20" height="25" fill="#ffffff" stroke="#ffffff" stroke-width="1.5"/>
    <text class="text" x="680" y="130" dominant-baseline="middle" text-anchor="middle" fill="#000000" font-size="18px">a</text>
    <rect x="510" y="117.5" width="20" height="25" fill="#ffffff" stroke="#ffffff" stroke-width="1.5"/>
    <text class="text" x="520" y="130" dominant-baseline="middle" text-anchor="middle" fill="#000000" font-size="18px">a</text>
    <rect x="580" y="149.5" width="40" height="21" fill="#ffffff" stroke="#ffffff" stroke-width="1.5"/>
    <text class="text" x="600" y="160" dominant-baseline="middle" text-anchor="middle" fill="#000000" font-size="14px">b,i</text>
    <rect x="630" y="209.5" width="40" height="21" fill="#ffffff" stroke="#ffffff" stroke-width="1.5"/>
    <text class="text" x="650" y="220" dominant-baseline="middle" text-anchor="middle" fill="#000000" font-size="14px">b,i</text>
    <rect x="640" y="249.5" width="40" height="21" fill="#ffffff" stroke="#ffffff" stroke-width="1.5"/>
    <text class="text" x="660" y="260" dominant-baseline="middle" text-anchor="middle" fill="#000000" font-size="14px">c,i</text>
    <rect x="550" y="209.5" width="40" height="21" fill="#ffffff" stroke="#ffffff" stroke-width="1.5"/>
    <text class="text" x="570" y="220" dominant-baseline="middle" text-anchor="middle" fill="#000000" font-size="14px">c,i</text>
    <rect x="560" y="330" width="40" height="20" fill="#ffffff" stroke="#ffffff" stroke-width="1.5"/>
    <text class="text" x="580" y="340" dominant-baseline="middle" text-anchor="middle" fill="#000000" font-size="13px">c,i</text>
    <rect x="610" y="329.5" width="40" height="21" fill="#ffffff" stroke="#ffffff" stroke-width="1.5"/>
    <text class="text" x="630" y="340" dominant-baseline="middle" text-anchor="middle" fill="#000000" font-size="14px">d,i</text>
    <rect x="490" y="309.5" width="40" height="21" fill="#ffffff" stroke="#ffffff" stroke-width="1.5"/>
    <text class="text" x="510" y="320" dominant-baseline="middle" text-anchor="middle" fill="#000000" font-size="14px">d,i</text>
    <rect x="690" y="319.5" width="40" height="21" fill="#ffffff" stroke="#ffffff" stroke-width="1.5"/>
    <text class="text" x="710" y="330" dominant-baseline="middle" text-anchor="middle" fill="#000000" font-size="14px">d,i</text>
    <rect x="660" y="289.5" width="40" height="21" fill="#ffffff" stroke="#ffffff" stroke-width="1.5"/>
    <text class="text" x="680" y="300" dominant-baseline="middle" text-anchor="middle" fill="#000000" font-size="14px">b,i</text>
    <rect x="750" y="239.5" width="120" height="21" fill="#ffffff" stroke="#ffffff" stroke-width="1.5"/>
    <text class="text" x="810" y="250" dominant-baseline="middle" text-anchor="middle" fill="#000000" font-size="14px">i: v = 0, brake</text>
</svg>